<svg t="1645445627512" class="icon" viewBox="0 0 1024 1024" version="1.1" xmlns="http://www.w3.org/2000/svg" p-id="37983" width="200" height="200"><path d="M817.56672 716.6976h-107.3408V827.904a16.55296 16.55296 0 0 1-16.54784 16.55296h-22.76864a16.55296 16.55296 0 0 1-16.54784-16.55296V716.6976H547.0208a16.55296 16.55296 0 0 1-16.54784-16.55808V677.376a16.55296 16.55296 0 0 1 16.54784-16.54784h107.3408v-111.21664a16.55296 16.55296 0 0 1 16.54784-16.55296h22.76864a16.55296 16.55296 0 0 1 16.54784 16.55296v111.21664h107.3408a16.55296 16.55296 0 0 1 16.55808 16.54784v22.76864a16.55808 16.55808 0 0 1-16.55808 16.55808zM378.368 248.5248h331.0848c73.1392 0 132.43392 59.2896 132.43392 132.42368v180.02944c0 16.0768-15.80544 18.61632-15.80544 18.61632h-13.33248c-13.95712 0-15.104-18.85184-15.104-18.85184V504.33536H223.95904v207.6928s23.1424 84.32128 88.19712 84.32128h248.04352s16.8192 1.16224 16.8192 15.03744v16.06656c0 15.70304-16.19968 17.00864-16.19968 17.00864H312.15104c-73.14432 0-132.43392-59.2896-132.43392-132.43392V247.89504m43.96032 43.008v170.6752h576.55296v-81.4592c0-78.73536-78.21312-89.21088-78.21312-89.21088H299.29984"  p-id="37984"></path></svg>