<svg t="1645424527962" class="icon" viewBox="0 0 1024 1024" version="1.1" xmlns="http://www.w3.org/2000/svg" p-id="33004" width="200" height="200"><path d="M917.485 252.764a32.357 32.357 0 0 1 15.92 27.892v453.193a32.357 32.357 0 0 1-15.92 27.827L528.682 988.37a32.357 32.357 0 0 1-31.84 0L108.04 761.741a32.357 32.357 0 0 1-15.92-27.892V280.591a32.357 32.357 0 0 1 15.92-27.827l388.803-226.5a31.193 31.193 0 0 1 31.84 0l388.802 226.5z m-47.889 462.512V299.358L512.763 85.608l-356.834 213.75v415.918l356.834 211.81 356.833-211.81z m-599.9-312.957a30.545 30.545 0 0 1 30.545-53.066l213.04 124.834 212.974-124.834a30.61 30.61 0 0 1 30.61 52.936L545.378 525.34v242.29c0 16.955-15.144 30.027-32.099 30.027s-32.874-13.072-32.874-30.027V524.952l-210.71-122.633z" p-id="33005" fill="#8a8a8a"></path></svg>