<svg t="1645687665550" class="icon" viewBox="0 0 1024 1024" version="1.1" xmlns="http://www.w3.org/2000/svg" p-id="2067" width="200" height="200"><path d="M856.4 767.1V871c0 12.8-10.4 23.3-23.3 23.3H192.6c-12.8 0-23.3-10.4-23.3-23.3V185.5c0-12.8 10.4-23.3 23.3-23.3h640.5c12.8 0 23.3 10.4 23.3 23.3v103.9h40V185.5c0-34.9-28.4-63.3-63.3-63.3H192.6c-34.9 0-63.3 28.4-63.3 63.3V871c0 34.9 28.4 63.3 63.3 63.3h640.5c34.9 0 63.3-28.4 63.3-63.3V767.1h-40z"  p-id="2068"></path><path d="M779.1 352.8l-25.7 30.7L903.7 509H503v40h400.3L753.5 672.9l25.5 30.8 211.2-174.6z" fill="#403E3E" p-id="2069"></path></svg>