<svg t="1645411606141" class="icon" viewBox="0 0 1060 1024" version="1.1" xmlns="http://www.w3.org/2000/svg" 
p-id="6813" width="200" height="200">
<path d="M930.504348 15.582609 129.113043 15.582609c-71.234783 0-129.113043 57.878261-129.113043 129.113043L0 
712.347826c0 71.234783 57.878261 129.113043 129.113043 129.113043l440.765217 0L730.156522 1001.73913c4.452174 
4.452174 13.356522 8.904348 20.034783 8.904348s13.356522-2.226087 20.034783-8.904348c11.130435-11.130435 
11.130435-28.93913 0-40.069565l-169.182609-169.182609c-4.452174-4.452174-13.356522-8.904348-20.034783-8.904348L129.113043 
783.582609c-40.069565 0-73.46087-33.391304-73.46087-73.46087L55.652174 144.695652c0-40.069565 33.391304-73.46087 
73.46087-73.46087L930.504348 71.234783c40.069565 0 73.46087 33.391304 73.46087 73.46087L1003.965217 712.347826c0 
40.069565-33.391304 73.46087-73.46087 73.46087l-104.626087 0c-15.582609 0-26.713043 13.356522-26.713043 26.713043s13.356522 
26.713043 26.713043 26.713043L930.504348 839.234783c71.234783 0 129.113043-57.878261 129.113043-129.113043L1059.617391 
144.695652C1059.617391 73.46087 1001.73913 15.582609 930.504348 15.582609zM451.895652 636.66087c4.452174 6.678261 8.904348 
6.678261 13.356522-2.226087 24.486957-55.652174 51.2-109.078261 75.686957-158.052174 15.582609 0 28.93913 0 42.295652 
2.226087 6.678261 2.226087 8.904348-2.226087 8.904348-8.904348-2.226087-13.356522-11.130435-24.486957-28.93913-33.391304 
31.165217-57.878261 60.104348-106.852174 82.365217-146.921739 31.165217-55.652174 33.391304-91.269565 
22.26087-111.304348-4.452174-8.904348-11.130435-11.130435-17.808696 0C618.852174 215.930435 552.069565 336.13913 505.321739 
431.86087c-48.973913 2.226087-95.721739 15.582609-146.921739 22.26087 33.391304-62.330435 62.330435-113.530435 84.591304-155.826087 
26.713043-53.426087 28.93913-89.043478 17.808696-109.078261-4.452174-8.904348-11.130435-8.904348-17.808696 0-31.165217 42.295652-100.173913 
171.408696-146.921739 269.356522-8.904348 0-20.034783-2.226087-31.165217-2.226087-13.356522 0-13.356522 2.226087-8.904348 11.130435 2.226087 
6.678261 8.904348 15.582609 24.486957 24.486957-15.582609 33.391304-26.713043 60.104348-31.165217 75.686957-13.356522 44.521739-6.678261 
66.782609 4.452174 82.365217 4.452174 6.678261 11.130435 4.452174 13.356522-2.226087 22.26087-48.973913 44.521739-97.947826 66.782609-144.695652 35.617391 0 
91.269565-8.904348 146.921739-15.582609-15.582609 31.165217-26.713043 55.652174-31.165217 71.234783C434.086957 598.817391 440.765217 621.078261 451.895652 
636.66087zM763.547826 296.069565c-8.904348-20.034783-31.165217-28.93913-42.295652-15.582609-11.130435 13.356522-15.582609 35.617391-4.452174 55.652174 11.130435 
20.034783 31.165217 22.26087 42.295652 11.130435C768 333.913043 772.452174 313.878261 763.547826 296.069565zM643.33913 647.791304c42.295652 0 89.043478-31.165217 
111.304348-77.913043 8.904348-17.808696 11.130435-33.391304 4.452174-46.747826-2.226087-6.678261-8.904348-6.678261-11.130435 0-22.26087 51.2-62.330435 
100.173913-95.721739 102.4-24.486957 2.226087-24.486957-26.713043-6.678261-71.234783 15.582609-37.843478 46.747826-86.817391 62.330435-120.208696 
17.808696-37.843478 11.130435-69.008696 0-80.13913-6.678261-6.678261-11.130435-4.452174-17.808696 4.452174-26.713043 37.843478-75.686957 
126.886957-95.721739 180.313043C572.104348 598.817391 585.46087 647.791304 643.33913 647.791304z" p-id="6814"></path></svg>