<svg t="1645415117065" class="icon" viewBox="0 0 1024 1024" version="1.1" xmlns="http://www.w3.org/2000/svg" p-id="15869" width="200" height="200"><path d="M1022.976 256.512L767.488 1.024 512 256.512 256.512 1.024 1.024 256.512 256.512 512 1.024 767.488v255.488h255.488L512 767.488l255.488 255.488 255.488-255.488L767.488 512l255.488-255.488zM262.912 428.992l108.544-108.608-44.672-44.736-108.608 108.608-38.336-38.336L294.848 231.04l-51.136-44.8-108.544 115.008-44.8-44.672 166.144-166.08L467.2 301.184 301.184 467.264l-38.272-38.272z m-198.016 530.112V831.36l127.744 127.744H64.896z m191.616-25.536l-166.08-166.08 677.12-677.12 166.016 166.144-677.12 677.12z m677.12-166.08l-166.144 166.08-44.672-44.736 114.944-114.944-44.736-44.736-114.944 115.008-38.336-38.336 115.008-114.944-51.136-44.8-114.944 115.008-38.4-38.272 166.144-166.08 217.152 210.752z" fill="currentColor" p-id="15870"></path></svg>